# xmcd CD database file
#
# Track frame offsets:
#	187
#	44247
#	69020
#	87445
#	124980
#	146802
#
# Disc length: 2365 seconds
#
# Revision: 0
# Processed by: cddbd v1.5.1PL2 Copyright (c) Steve Scherf et al.
# Submitted via: CDex 1.51
#
DISCID=59093b06
DTITLE=Art Blakey and The Jazz Messengers - Caravan
DYEAR=1962
DGENRE=Jazz
TTITLE0=Caravan
TTITLE1=Sweet 'N' Sour
TTITLE2=In the Wee Small Hours of the Morning
TTITLE3=This Is for Albert
TTITLE4=Skylark
TTITLE5=Thermo
EXTD=YEAR: 1962
EXTT0=
EXTT1=
EXTT2=
EXTT3=
EXTT4=
EXTT5=
PLAYORDER=
